<svg id="splitsvg" xmlns="http://www.w3.org/2000/svg" xmlns:xlink="http://www.w3.org/1999/xlink" width="1380" height="237" version="1.1"><g id="svgg"><path id="path0" d="M250.474 13.068 C 240.140 28.638,239.473 29.113,226.718 29.996 C 221.245 30.375,214.864 31.447,212.539 32.379 C 210.214 33.311,206.173 33.514,203.559 32.830 C 200.946 32.147,198.160 32.634,197.370 33.913 C 196.579 35.193,193.075 36.015,189.583 35.740 C 186.091 35.465,181.383 36.036,179.121 37.008 C 176.859 37.980,173.625 38.280,171.935 37.675 C 170.245 37.070,167.157 37.449,165.072 38.516 C 162.987 39.584,154.365 41.150,145.910 41.997 C 130.463 43.545,123.281 44.430,107.784 46.694 C 103.174 47.368,97.246 48.185,94.611 48.510 C 91.976 48.836,89.281 49.728,88.623 50.492 C 85.441 54.187,50.290 76.553,50.227 74.923 C 50.187 73.895,49.042 74.963,47.684 77.296 C 46.326 79.629,44.316 80.982,43.218 80.304 C 42.119 79.625,40.576 80.748,39.789 82.800 C 39.001 84.852,37.385 85.930,36.196 85.196 C 35.007 84.461,33.391 85.539,32.603 87.591 C 31.816 89.643,30.173 90.704,28.952 89.950 C 27.732 89.196,25.427 92.630,23.831 97.583 C 22.234 102.535,20.292 107.665,19.515 108.982 C 18.738 110.299,17.771 113.510,17.366 116.116 C 16.961 118.723,15.667 121.818,14.490 122.995 C 13.313 124.172,12.920 126.620,13.617 128.436 C 14.314 130.251,13.627 131.737,12.091 131.737 C 10.555 131.737,9.847 132.624,10.517 133.709 C 11.187 134.793,9.062 144.101,5.794 154.393 C -1.600 177.677,-1.749 177.591,16.251 160.409 C 31.444 145.907,33.259 145.445,28.356 157.329 C 26.826 161.038,25.735 164.843,25.933 165.785 C 26.130 166.728,25.074 170.500,23.586 174.168 C 22.097 177.837,20.671 182.455,20.416 184.431 C 20.162 186.407,17.080 197.927,13.569 210.032 C 10.058 222.136,7.186 233.184,7.186 234.582 C 7.186 239.720,47.290 237.740,52.695 232.335 C 55.329 229.701,57.447 226.967,57.399 226.262 C 56.844 217.933,65.036 218.781,68.489 227.409 L 72.376 237.126 92.476 237.126 C 103.530 237.126,112.662 236.317,112.769 235.329 C 112.876 234.341,113.236 230.838,113.569 227.545 C 113.902 224.251,115.006 215.445,116.022 207.975 L 117.870 194.392 129.483 192.795 C 135.871 191.916,142.134 191.839,143.402 192.622 C 144.670 193.406,151.130 192.884,157.757 191.463 C 164.384 190.042,172.466 189.225,175.717 189.649 L 181.628 190.419 176.113 207.747 C 173.079 217.278,169.917 227.787,169.086 231.101 L 167.573 237.126 188.252 237.126 L 208.930 237.126 217.797 227.134 L 226.663 217.143 239.896 227.134 L 253.130 237.126 281.056 237.126 C 296.415 237.126,308.982 236.648,308.982 236.063 C 308.982 235.479,302.923 224.651,295.518 212.003 C 280.545 186.428,280.562 185.996,296.540 185.489 C 314.079 184.932,332.815 173.036,349.127 152.100 C 353.785 146.121,358.086 141.719,358.685 142.317 C 360.008 143.641,349.013 166.761,343.489 174.270 L 339.511 179.677 357.181 178.153 C 366.899 177.315,377.635 176.498,381.038 176.338 C 384.441 176.179,387.285 174.970,387.357 173.653 C 387.429 172.335,390.303 163.957,393.744 155.035 C 401.850 134.015,402.211 135.317,386.019 127.143 C 372.846 120.493,371.829 119.348,368.428 107.348 C 364.839 94.684,363.599 94.852,360.628 108.406 L 359.179 115.015 349.400 110.026 C 340.623 105.549,338.326 102.297,326.962 78.267 C 314.936 52.837,312.979 50.208,287.873 25.749 C 256.787 -4.538,261.173 -3.050,250.474 13.068 M313.283 79.424 C 318.797 91.834,319.790 95.872,317.069 94.828 C 315.040 94.050,312.866 93.413,312.238 93.413 C 311.609 93.413,311.864 92.169,312.804 90.648 C 313.883 88.902,313.458 88.534,311.652 89.651 C 309.896 90.736,305.166 87.410,299.404 81.039 C 290.278 70.947,290.014 70.833,289.919 76.946 C 289.634 95.163,291.179 96.996,317.017 109.102 C 330.382 115.365,341.679 121.409,342.121 122.534 C 342.563 123.660,343.751 124.070,344.762 123.445 C 345.773 122.820,348.373 123.622,350.541 125.226 C 357.920 130.689,320.328 170.927,308.982 169.709 C 307.006 169.497,303.772 169.947,301.796 170.709 C 299.820 171.471,292.621 172.549,285.797 173.105 L 273.391 174.115 257.233 150.530 C 248.346 137.559,240.720 126.946,240.286 126.946 C 239.853 126.946,250.225 148.380,263.336 174.577 C 276.447 200.773,286.512 222.869,285.703 223.678 C 284.894 224.488,285.553 225.150,287.167 225.150 C 288.782 225.150,289.437 226.228,288.623 227.545 C 287.809 228.862,281.753 229.940,275.166 229.940 C 266.724 229.940,263.695 229.124,264.899 227.175 C 265.946 225.482,265.558 225.059,263.900 226.084 C 262.366 227.032,246.739 216.864,227.865 202.637 L 194.540 177.516 179.306 177.516 C 162.101 177.517,129.233 179.083,124.251 180.140 C 122.408 180.531,121.297 179.296,121.727 177.335 C 122.149 175.409,122.839 168.942,123.260 162.964 C 123.681 156.987,124.678 146.707,125.475 140.120 C 126.272 133.533,121.335 149.162,114.503 174.850 C 107.671 200.539,101.117 222.216,99.938 223.022 C 98.759 223.828,97.887 225.445,97.999 226.615 C 98.112 227.785,94.970 228.743,91.018 228.743 C 87.066 228.743,83.924 227.785,84.037 226.615 C 84.149 225.445,83.164 223.822,81.848 223.008 C 78.759 221.099,62.014 184.443,64.208 184.394 C 65.121 184.374,64.680 183.566,63.228 182.598 C 59.626 180.197,40.845 139.594,42.549 137.891 C 43.299 137.141,42.591 136.527,40.976 136.527 C 39.362 136.527,38.707 135.449,39.521 134.132 C 40.335 132.814,39.860 131.737,38.465 131.737 C 37.070 131.737,35.928 129.365,35.928 126.467 C 35.928 122.369,35.289 121.836,33.054 124.072 C 29.267 127.859,25.549 127.772,27.935 123.952 C 28.964 122.305,30.029 119.478,30.303 117.670 C 32.056 106.082,37.841 100.064,63.929 82.689 C 79.121 72.571,93.856 63.729,96.673 63.040 C 103.727 61.314,124.599 58.232,140.362 56.588 C 144.447 56.162,148.827 55.172,150.096 54.388 C 151.364 53.604,159.339 52.256,167.818 51.393 C 176.296 50.529,186.733 49.321,191.011 48.708 C 195.288 48.095,202.294 47.140,206.580 46.586 C 210.865 46.032,219.222 44.532,225.150 43.253 C 244.435 39.092,244.540 39.149,257.357 61.050 C 272.221 86.448,272.915 85.660,262.206 55.547 C 253.874 32.118,253.740 31.202,257.732 25.109 L 261.849 18.826 283.829 40.716 C 301.530 58.343,307.266 65.880,313.283 79.424 M381.457 151.954 C 378.656 159.511,375.836 163.009,371.709 164.045 C 363.806 166.029,363.453 165.187,366.572 151.788 C 371.011 132.719,370.337 133.533,378.285 137.643 L 385.398 141.321 381.457 151.954 M42.032 172.056 C 42.096 172.934,45.554 180.269,49.717 188.357 L 57.285 203.061 48.333 215.902 C 36.315 233.138,16.338 236.536,24.983 219.873 C 26.798 216.375,27.817 213.047,27.248 212.478 C 26.679 211.908,27.489 208.329,29.049 204.524 C 30.609 200.718,32.003 196.527,32.148 195.210 C 33.724 180.857,41.369 162.948,42.032 172.056 M199.126 198.408 C 199.668 197.966,203.716 200.426,208.121 203.874 L 216.131 210.142 207.188 220.041 C 190.115 238.939,179.826 232.873,189.445 209.581 C 192.843 201.354,193.286 199.937,193.749 195.808 C 194.004 193.535,194.573 193.584,196.113 196.013 C 197.228 197.772,198.584 198.850,199.126 198.408  M -25 0 L -5 0 L -5 20 L -25 20 Z M 405 0 L 425 0 L 425 20 L 405 20 Z" stroke="none" fill="#000000" fill-rule="evenodd" transform="translate(30,0)"></path></g></svg>