<?xml version="1.0" encoding="utf-8"?>
<!-- Svg Vector Icons : http://www.onlinewebfonts.com/icon -->
<!DOCTYPE svg PUBLIC "-//W3C//DTD SVG 1.1//EN" "http://www.w3.org/Graphics/SVG/1.1/DTD/svg11.dtd">
<svg version="1.1" xmlns="http://www.w3.org/2000/svg" xmlns:xlink="http://www.w3.org/1999/xlink" x="0px" y="0px" viewBox="0 0 1000 1000" enable-background="new 0 0 1000 1000" xml:space="preserve">
<metadata> Svg Vector Icons : http://www.onlinewebfonts.com/icon </metadata>
<g><path d="M495.9,521.6c-142.7,0-259.5-116.8-259.5-259.5c0-142.7,116.8-259.5,259.5-259.5s259.5,116.8,259.5,259.5C755.4,404.9,638.6,521.6,495.9,521.6z M495.9,45.9c-121.1,0-216.2,95.1-216.2,216.2c0,121.1,95.1,216.2,216.2,216.2c121.1,0,216.2-95.1,216.2-216.2C712.1,141.1,617,45.9,495.9,45.9z"/><path d="M902.4,997.3h-813c-25.9,0-47.6-8.6-60.5-30.3c-17.3-17.3-21.6-43.2-17.3-64.9C46.2,660,258.1,478.4,500.2,478.4c242.2,0,454.1,181.6,488.7,423.8c4.3,21.6-4.3,47.6-17.3,64.9C950,984.3,928.3,997.3,902.4,997.3z M495.9,521.6c-220.5,0-415.1,164.3-445.4,384.9c0,13,0,21.6,8.6,30.3c8.6,8.6,17.3,13,30.3,13h817.3c13,0,21.6-4.3,30.3-13c8.6-8.6,8.6-21.6,8.6-30.3C911,685.9,716.4,521.6,495.9,521.6z"/></g>
</svg>